<?xml version="1.0" standalone="no"?>
<!DOCTYPE svg PUBLIC "-//W3C//DTD SVG 20010904//EN"
 "http://www.w3.org/TR/2001/REC-SVG-20010904/DTD/svg10.dtd">
<svg version="1.0" xmlns="http://www.w3.org/2000/svg"
 width="257.000000pt" height="257.000000pt" viewBox="0 0 257.000000 257.000000"
 preserveAspectRatio="xMidYMid meet">

<g transform="translate(0.000000,257.000000) scale(0.100000,-0.100000)"
fill="#000000" stroke="none">
<path d="M1136 2560 c-522 -60 -959 -440 -1092 -949 -145 -560 100 -1148 599
-1436 26 -15 47 -25 47 -22 0 3 -21 17 -47 32 -261 150 -475 418 -567 714 -46
146 -59 248 -53 421 6 174 29 283 91 436 159 391 517 681 941 765 104 21 378
18 483 -5 170 -36 308 -95 453 -191 284 -189 486 -498 544 -833 19 -109 19
-325 0 -434 -57 -330 -263 -647 -536 -827 -47 -31 -94 -62 -105 -69 -10 -7 4
-1 32 13 138 71 327 246 426 395 145 220 212 444 212 715 0 360 -122 654 -373
906 -189 187 -409 306 -661 353 -102 20 -293 27 -394 16z"/>
<path d="M1357 2378 c3 -29 6 -57 7 -63 1 -5 47 -17 102 -26 54 -9 107 -20
117 -24 14 -6 17 -2 17 29 0 39 -13 46 -41 20 -23 -21 -46 -12 -52 18 l-4 23
-2 -22 c0 -13 -5 -23 -10 -23 -23 0 -41 14 -41 31 0 10 -5 19 -11 19 -6 0 -8
-9 -4 -20 7 -21 -3 -24 -42 -14 -20 6 -23 13 -23 55 0 27 -4 49 -9 49 -4 0 -6
-24 -4 -52z"/>
<path d="M1420 2410 c0 -5 7 -10 15 -10 8 0 15 5 15 10 0 6 -7 10 -15 10 -8 0
-15 -4 -15 -10z"/>
<path d="M1660 2405 c-10 -12 -9 -15 4 -15 10 0 15 4 12 9 -4 5 0 12 6 14 8 4
9 6 2 6 -6 1 -17 -6 -24 -14z"/>
<path d="M1061 2405 c0 -5 8 -37 19 -70 15 -44 20 -50 16 -25 -4 35 -34 115
-35 95z"/>
<path d="M1240 2400 c0 -5 9 -10 19 -10 11 0 23 5 26 10 4 6 -5 10 -19 10 -14
0 -26 -4 -26 -10z"/>
<path d="M1007 2353 c6 -37 5 -37 -13 -22 -10 9 -29 22 -41 28 -19 10 -23 9
-23 -4 0 -9 8 -18 18 -21 53 -17 65 -25 54 -36 -16 -16 -15 -48 2 -48 21 0 36
23 26 40 -6 8 -10 34 -10 58 0 23 -4 42 -9 42 -6 0 -7 -17 -4 -37z"/>
<path d="M1638 2321 c-18 -70 -23 -64 83 -113 l77 -36 11 25 c6 13 11 29 11
35 0 6 7 19 16 29 9 10 13 23 9 29 -9 14 -25 3 -25 -18 -1 -9 -6 -30 -13 -45
-10 -24 -14 -26 -29 -15 -16 12 -17 17 -3 62 8 27 13 51 11 54 -3 2 -10 -16
-17 -40 -7 -23 -15 -46 -19 -51 -9 -11 -110 33 -110 48 0 7 5 26 11 43 6 17 9
36 7 42 -2 6 -11 -16 -20 -49z"/>
<path d="M1315 2350 c6 -18 2 -20 -49 -20 -42 0 -57 4 -65 18 -9 15 -10 15
-11 -5 0 -31 26 -42 88 -36 49 5 52 7 52 34 0 16 -5 29 -11 29 -6 0 -8 -9 -4
-20z"/>
<path d="M1695 2341 c-3 -6 3 -15 14 -21 12 -6 22 -6 26 -1 3 6 -3 15 -14 21
-12 6 -22 6 -26 1z"/>
<path d="M768 2303 c-10 -2 -18 -9 -18 -15 0 -5 7 -7 16 -4 9 3 20 6 25 6 5 0
9 5 9 10 0 10 -3 11 -32 3z"/>
<path d="M857 2293 c-9 -9 -9 -25 1 -20 4 3 16 1 27 -3 19 -7 18 -9 -8 -21
-22 -10 -33 -10 -48 -1 -10 7 -19 8 -19 3 0 -5 6 -11 13 -14 7 -2 0 -10 -16
-17 -21 -10 -30 -11 -39 -2 -21 21 -38 13 -38 -18 0 -20 -7 -33 -22 -41 -19
-10 -26 -7 -60 32 -48 56 -50 42 -2 -17 39 -48 67 -55 86 -24 7 11 17 20 23
20 21 0 195 84 195 95 0 6 -15 16 -33 23 -38 14 -51 15 -60 5z m-97 -93 c0 -5
-4 -10 -10 -10 -5 0 -10 5 -10 10 0 6 5 10 10 10 6 0 10 -4 10 -10z"/>
<path d="M1704 2279 c-3 -6 -1 -16 5 -22 8 -8 11 -5 11 11 0 24 -5 28 -16 11z"/>
<path d="M1450 2255 c0 -6 8 -11 18 -10 9 0 17 5 17 10 0 5 -8 10 -17 10 -10
1 -18 -4 -18 -10z"/>
<path d="M1013 2225 c-8 -22 5 -31 20 -15 10 10 9 11 -2 5 -11 -6 -13 -4 -8 8
3 10 4 17 1 17 -2 0 -7 -7 -11 -15z"/>
<path d="M910 2200 c0 -5 5 -10 10 -10 6 0 10 5 10 10 0 6 -4 10 -10 10 -5 0
-10 -4 -10 -10z"/>
<path d="M1135 2149 c-274 -51 -505 -228 -624 -479 -57 -119 -81 -222 -86
-360 l-4 -115 9 100 c32 350 203 610 493 749 113 54 194 75 317 83 246 15 460
-68 641 -247 149 -147 233 -315 258 -517 l10 -78 -5 80 c-14 246 -160 501
-370 646 -78 54 -212 110 -308 130 -97 20 -245 23 -331 8z"/>
<path d="M548 2115 c-9 -21 -8 -28 7 -45 20 -22 14 -26 -16 -10 -23 13 -26 2
-3 -14 13 -10 12 -14 -11 -36 -24 -23 -26 -23 -58 -8 l-33 16 5 -39 c7 -44 20
-52 36 -23 6 11 18 18 28 16 22 -4 67 35 107 93 32 48 29 77 -4 38 -17 -19
-28 -24 -42 -19 -18 7 -17 9 9 32 26 22 26 24 7 24 -12 0 -25 -10 -32 -25z
m-78 -134 c0 -6 -4 -13 -10 -16 -5 -3 -10 1 -10 9 0 9 5 16 10 16 6 0 10 -4
10 -9z"/>
<path d="M1850 2120 c-24 -24 -17 -46 21 -65 36 -19 58 -19 66 1 4 12 22 -1
77 -55 70 -69 72 -71 94 -55 29 20 26 56 -5 64 -18 4 -20 8 -10 21 7 8 20 20
29 25 13 7 14 13 7 24 -8 11 -12 12 -15 3 -13 -30 -47 -63 -66 -63 -17 0 -19
4 -14 28 6 24 5 25 -7 10 -13 -16 -15 -16 -36 6 -26 28 -53 37 -72 26 -10 -7
-10 -11 0 -24 22 -26 -4 -19 -39 11 l-32 27 22 18 c12 10 17 18 11 18 -6 0
-20 -9 -31 -20z m255 -141 c4 -6 4 -13 1 -16 -7 -7 -46 26 -46 39 0 10 36 -8
45 -23z"/>
<path d="M2056 2122 c-3 -6 -1 -14 5 -17 15 -10 25 3 12 16 -7 7 -13 7 -17 1z"/>
<path d="M376 2044 c-9 -22 3 -32 14 -14 12 19 12 30 1 30 -5 0 -12 -7 -15
-16z"/>
<path d="M1830 2042 c0 -13 39 -32 45 -22 3 5 -3 14 -14 19 -23 13 -31 14 -31
3z"/>
<path d="M573 1986 c-16 -19 -4 -29 13 -11 8 7 14 16 14 19 0 10 -15 6 -27 -8z"/>
<path d="M1219 1913 c-95 -49 -145 -156 -119 -255 16 -59 52 -111 95 -138 l37
-23 -60 -29 c-90 -43 -151 -128 -152 -210 0 -45 -15 -50 -24 -8 -8 41 -72 108
-120 124 l-38 13 31 22 c42 30 61 70 61 128 0 91 -63 153 -156 153 -61 0 -108
-28 -135 -80 -36 -67 -20 -142 42 -194 17 -15 30 -28 28 -30 -2 -1 -25 -14
-50 -29 -26 -15 -59 -41 -74 -59 -28 -33 -75 -123 -75 -144 0 -8 23 -5 68 8
103 29 215 21 367 -27 168 -54 293 -59 493 -20 143 28 185 28 196 -1 22 -56
-121 -133 -354 -191 -43 -11 -47 -29 -18 -73 81 -120 263 -131 443 -25 129 76
224 117 296 129 l71 11 -4 66 c-9 126 -90 250 -200 308 l-43 24 32 32 c27 27
33 41 33 75 0 34 -6 48 -34 76 -29 29 -41 34 -79 34 -36 0 -51 -6 -76 -29 -26
-24 -31 -37 -31 -75 0 -36 6 -52 30 -79 l30 -35 -30 -12 c-17 -7 -39 -23 -49
-36 -24 -31 -27 -30 -34 6 -9 44 -78 113 -147 147 l-60 30 37 24 c59 38 94 96
100 167 8 82 -14 139 -72 190 -77 68 -166 80 -256 35z"/>
<path d="M2060 1903 c0 -29 27 -55 54 -51 12 2 28 -6 38 -17 16 -20 17 -19 56
13 23 17 45 32 50 32 5 0 9 7 9 15 0 22 -7 19 -47 -20 -33 -32 -38 -34 -50
-20 -11 13 -10 18 4 33 22 25 20 32 -8 32 -27 0 -51 -24 -41 -40 5 -8 -1 -11
-16 -8 -13 1 -29 14 -36 28 -12 24 -13 24 -13 3z m100 -3 c0 -5 -4 -10 -10
-10 -5 0 -10 5 -10 10 0 6 5 10 10 10 6 0 10 -4 10 -10z"/>
<path d="M304 1902 c3 -5 23 -15 46 -22 48 -16 56 -25 40 -45 -10 -12 -19 -11
-61 5 -56 22 -62 24 -55 11 3 -4 26 -14 51 -21 50 -14 49 -13 34 -43 -16 -30
-15 -30 -37 -18 -15 8 -23 7 -32 -4 -16 -19 -5 -49 15 -41 9 3 15 0 15 -9 0
-9 -10 -15 -25 -15 -26 0 -33 -18 -14 -37 17 -17 2 -63 -19 -63 -9 0 -34 5
-56 9 -21 5 -35 6 -30 2 5 -4 33 -13 63 -20 58 -15 70 -8 71 34 0 11 9 34 20
50 11 17 20 38 20 47 0 9 4 18 8 20 9 4 75 109 70 112 -47 34 -137 68 -124 48z
m-4 -222 c0 -5 -5 -10 -11 -10 -5 0 -7 5 -4 10 3 6 8 10 11 10 2 0 4 -4 4 -10z"/>
<path d="M2233 1828 c-24 -17 -41 -34 -38 -36 5 -5 32 12 75 47 40 33 9 23
-37 -11z"/>
<path d="M2223 1700 c-33 -13 -31 -61 5 -100 l27 -31 45 23 c49 25 60 42 34
52 -30 12 -56 -3 -51 -30 6 -32 -16 -31 -42 2 -27 34 -27 59 1 78 25 17 16 20
-19 6z m97 -70 c0 -5 -5 -10 -11 -10 -5 0 -7 5 -4 10 3 6 8 10 11 10 2 0 4 -4
4 -10z"/>
<path d="M2362 1650 c14 -21 28 -27 28 -10 0 6 -5 10 -11 10 -5 0 -7 5 -4 10
3 6 -1 10 -9 10 -14 0 -14 -3 -4 -20z"/>
<path d="M167 1574 c-17 -18 -3 -24 53 -24 66 0 85 -16 69 -57 -9 -26 -28 -29
-49 -10 -12 10 -12 9 -1 -5 17 -22 67 -24 75 -2 19 50 -13 84 -79 84 -23 0
-46 5 -51 10 -6 6 -13 7 -17 4z"/>
<path d="M2240 1528 c0 -34 30 -52 73 -43 61 14 73 45 16 45 -19 0 -29 -5 -29
-15 0 -25 -28 -17 -44 13 l-15 27 -1 -27z m100 -18 c0 -5 -4 -10 -10 -10 -5 0
-10 5 -10 10 0 6 5 10 10 10 6 0 10 -4 10 -10z"/>
<path d="M2307 1463 c-3 -5 0 -37 5 -73 13 -82 13 -79 4 -182 -4 -49 -4 -88 1
-89 74 -6 123 -5 123 3 0 5 -21 8 -47 7 -27 -1 -49 0 -50 4 -9 23 -1 37 22 37
33 0 33 29 0 78 -23 34 -24 38 -8 50 9 6 12 12 6 12 -21 0 -24 32 -3 37 11 3
20 10 20 15 0 5 -9 6 -20 3 -16 -5 -20 -2 -20 18 0 19 8 28 31 36 18 6 28 15
24 21 -5 8 -12 6 -24 -4 -25 -23 -41 -20 -41 9 0 24 -14 34 -23 18z m58 -243
c7 -23 -2 -43 -16 -35 -12 8 -12 55 0 55 5 0 12 -9 16 -20z"/>
<path d="M2420 1380 c0 -5 5 -10 10 -10 6 0 10 5 10 10 0 6 -4 10 -10 10 -5 0
-10 -4 -10 -10z"/>
<path d="M160 1370 c-28 -6 -21 -7 35 -8 47 0 64 2 50 8 -23 10 -37 10 -85 0z"/>
<path d="M137 1313 c-15 -14 -6 -23 17 -17 45 11 49 -6 9 -42 -34 -29 -36 -33
-16 -34 14 0 27 10 35 27 14 28 62 54 51 27 -3 -9 2 -14 17 -14 15 0 20 5 18
18 -2 11 -16 19 -43 23 -22 3 -49 8 -61 12 -11 4 -23 4 -27 0z"/>
<path d="M80 1243 c0 -17 14 -23 29 -14 9 6 10 11 2 15 -6 4 -11 1 -11 -6 0
-9 -3 -9 -10 2 -6 9 -10 10 -10 3z"/>
<path d="M218 1203 c-31 -36 -39 -60 -23 -73 12 -10 15 -9 15 8 0 26 16 37 24
16 11 -28 6 -52 -10 -58 -9 -4 -14 -9 -11 -12 3 -3 14 0 24 7 16 9 25 8 46 -5
14 -10 28 -27 30 -39 3 -16 5 -13 6 9 1 26 -4 34 -29 44 -26 11 -30 18 -30 50
0 67 -14 85 -42 53z"/>
<path d="M285 1170 c-3 -5 -2 -10 4 -10 5 0 13 5 16 10 3 6 2 10 -4 10 -5 0
-13 -4 -16 -10z"/>
<path d="M432 1155 c0 -16 2 -22 5 -12 2 9 2 23 0 30 -3 6 -5 -1 -5 -18z"/>
<path d="M2310 1080 c14 -9 129 -15 119 -6 -2 2 -33 6 -69 10 -44 4 -60 3 -50
-4z"/>
<path d="M240 1043 c-52 -19 -82 -34 -78 -38 4 -4 108 32 117 41 6 6 -21 4
-39 -3z"/>
<path d="M260 992 c0 -4 4 -12 10 -18 5 -5 6 -15 0 -24 -8 -12 -10 -12 -16 3
-7 18 -24 23 -24 7 0 -6 12 -16 26 -22 22 -10 27 -9 36 5 5 10 15 14 21 11 7
-4 1 5 -12 19 -24 27 -41 34 -41 19z"/>
<path d="M2273 975 c-78 -17 -192 -76 -308 -161 -234 -170 -346 -232 -462
-254 -86 -17 -258 -8 -358 20 -44 12 -170 57 -280 100 -318 125 -448 155 -591
134 l-59 -8 110 -7 c138 -9 192 -26 460 -144 330 -146 467 -183 635 -172 175
11 313 77 530 252 214 174 278 210 430 243 l45 10 -45 0 c-25 0 -73 -6 -107
-13z"/>
<path d="M864 386 c-16 -13 -19 -27 -19 -111 0 -118 6 -125 107 -125 61 0 68
2 68 19 0 17 -8 20 -52 23 l-53 3 -3 83 -3 82 56 0 c48 0 55 2 55 20 0 18 -7
20 -68 20 -43 0 -75 -5 -88 -14z"/>
<path d="M1070 275 l0 -125 31 0 32 0 -6 83 -5 82 38 -82 c36 -77 41 -83 69
-83 l30 0 3 125 3 125 -32 0 c-37 0 -39 -10 -23 -105 4 -27 6 -52 5 -54 -2 -1
-20 33 -41 78 -35 78 -38 81 -70 81 l-34 0 0 -125z"/>
<path d="M1346 292 c-44 -131 -45 -142 -8 -142 22 0 30 7 39 30 10 26 16 30
47 30 33 0 37 -3 43 -30 5 -26 10 -30 40 -30 29 0 34 3 30 18 -2 9 -20 65 -38
124 l-34 108 -42 0 -41 0 -36 -108z m88 21 c4 -16 9 -36 12 -45 4 -14 -1 -18
-22 -18 -24 0 -26 2 -20 31 3 17 6 38 6 45 0 25 18 15 24 -13z"/>
<path d="M1577 382 c-19 -20 -22 -68 -7 -92 5 -8 33 -22 62 -30 45 -14 53 -19
53 -40 0 -24 -4 -25 -62 -28 -55 -3 -63 -6 -63 -22 0 -18 7 -20 78 -20 91 0
112 13 112 73 0 44 -20 65 -71 73 -81 13 -79 61 3 66 41 2 54 7 56 21 3 15 -5
17 -71 17 -59 0 -77 -4 -90 -18z"/>
<path d="M750 120 c19 -11 40 -19 45 -19 6 0 -6 8 -25 19 -19 11 -39 19 -45
19 -5 0 6 -8 25 -19z"/>
<path d="M1765 104 c-27 -13 -39 -21 -25 -18 29 7 100 43 85 43 -5 0 -32 -12
-60 -25z"/>
<path d="M820 90 c8 -5 20 -10 25 -10 6 0 3 5 -5 10 -8 5 -19 10 -25 10 -5 0
-3 -5 5 -10z"/>
<path d="M928 53 c7 -3 16 -2 19 1 4 3 -2 6 -13 5 -11 0 -14 -3 -6 -6z"/>
<path d="M1628 53 c7 -3 16 -2 19 1 4 3 -2 6 -13 5 -11 0 -14 -3 -6 -6z"/>
<path d="M1008 33 c7 -3 16 -2 19 1 4 3 -2 6 -13 5 -11 0 -14 -3 -6 -6z"/>
<path d="M1548 33 c7 -3 16 -2 19 1 4 3 -2 6 -13 5 -11 0 -14 -3 -6 -6z"/>
<path d="M1058 23 c7 -3 16 -2 19 1 4 3 -2 6 -13 5 -11 0 -14 -3 -6 -6z"/>
<path d="M1498 23 c7 -3 16 -2 19 1 4 3 -2 6 -13 5 -11 0 -14 -3 -6 -6z"/>
<path d="M1128 13 c6 -2 18 -2 25 0 6 3 1 5 -13 5 -14 0 -19 -2 -12 -5z"/>
<path d="M1423 13 c9 -2 23 -2 30 0 6 3 -1 5 -18 5 -16 0 -22 -2 -12 -5z"/>
<path d="M1247 3 c18 -2 50 -2 70 0 21 2 7 4 -32 4 -38 0 -55 -2 -38 -4z"/>
</g>
</svg>
